<svg width="12" height="12" viewBox="0 0 12 12" fill="none" xmlns="http://www.w3.org/2000/svg">
<g id="eye-outline">
<path id="Vector" d="M6 4.5C6.39782 4.5 6.77936 4.65804 7.06066 4.93934C7.34196 5.22064 7.5 5.60218 7.5 6C7.5 6.39782 7.34196 6.77936 7.06066 7.06066C6.77936 7.34196 6.39782 7.5 6 7.5C5.60218 7.5 5.22064 7.34196 4.93934 7.06066C4.65804 6.77936 4.5 6.39782 4.5 6C4.5 5.60218 4.65804 5.22064 4.93934 4.93934C5.22064 4.65804 5.60218 4.5 6 4.5ZM6 2.25C8.5 2.25 10.635 3.805 11.5 6C10.635 8.195 8.5 9.75 6 9.75C3.5 9.75 1.365 8.195 0.5 6C1.365 3.805 3.5 2.25 6 2.25ZM1.59 6C2.415 7.68 4.12 8.75 6 8.75C7.88 8.75 9.585 7.68 10.41 6C9.585 4.32 7.88 3.25 6 3.25C4.12 3.25 2.415 4.32 1.59 6Z" fill="#999999"/>
</g>
</svg>
