<svg width="25" height="25" viewBox="0 0 25 25" fill="none" xmlns="http://www.w3.org/2000/svg">
<path d="M12.2439 20.434C16.6439 20.434 20.2439 16.834 20.2439 12.434C20.2439 8.03402 16.6439 4.43402 12.2439 4.43402C7.8439 4.43402 4.2439 8.03402 4.2439 12.434C4.2439 16.834 7.8439 20.434 12.2439 20.434ZM12.2439 2.43402C17.7439 2.43402 22.2439 6.93402 22.2439 12.434C22.2439 17.934 17.7439 22.434 12.2439 22.434C6.7439 22.434 2.2439 17.934 2.2439 12.434C2.2439 6.93402 6.7439 2.43402 12.2439 2.43402ZM12.7439 13.234L7.9439 16.034L7.2439 14.634L11.2439 12.334V7.43402H12.7439V13.234Z" fill="#999999"/>
</svg>
