<svg width="160" height="35" viewBox="0 0 160 35" fill="none" xmlns="http://www.w3.org/2000/svg">
<circle cx="16" cy="17.5" r="16" fill="#274799"/>
<mask id="mask0_95_12" style="mask-type:alpha" maskUnits="userSpaceOnUse" x="0" y="1" width="32" height="33">
<circle cx="16" cy="17.5" r="16" fill="#274799"/>
</mask>
<g mask="url(#mask0_95_12)">
<ellipse cx="26.6666" cy="9.92669" rx="16" ry="6.29333" fill="#FFD700"/>
<ellipse cx="5.33337" cy="25.0734" rx="16" ry="6.29333" fill="#FFD700"/>
</g>
<path d="M49.816 28.336C44.992 28.336 41.296 25.12 41.296 19.192C41.296 13.336 45.088 9.928 49.816 9.928C52.36 9.928 54.136 11.032 55.288 12.184L53.416 14.464C52.528 13.624 51.52 12.976 49.936 12.976C46.96 12.976 44.92 15.28 44.92 19.072C44.92 22.96 46.696 25.264 50.176 25.264C51.04 25.264 51.904 25.024 52.408 24.616V21.112H49.24V18.208H55.576V26.2C54.376 27.4 52.264 28.336 49.816 28.336ZM60.8511 28.336C58.3791 28.336 57.5391 26.728 57.5391 24.232V8.872H61.0671V24.376C61.0671 25.216 61.4271 25.48 61.7631 25.48C61.8831 25.48 61.9791 25.48 62.2191 25.432L62.6511 28.048C62.2431 28.192 61.6911 28.336 60.8511 28.336ZM69.1654 28.336C65.7814 28.336 62.7094 25.744 62.7094 21.304C62.7094 16.84 65.7814 14.248 69.1654 14.248C72.5254 14.248 75.5974 16.84 75.5974 21.304C75.5974 25.744 72.5254 28.336 69.1654 28.336ZM69.1654 25.48C70.9894 25.48 71.9974 23.824 71.9974 21.304C71.9974 18.76 70.9894 17.128 69.1654 17.128C67.3174 17.128 66.3094 18.76 66.3094 21.304C66.3094 23.824 67.3174 25.48 69.1654 25.48ZM83.7329 28.336C82.5329 28.336 81.2369 27.712 80.1569 26.584H80.0609L79.7729 28H77.0129V8.872H80.5409V13.696L80.4209 15.832C81.5009 14.896 82.8209 14.248 84.1649 14.248C87.4529 14.248 89.4449 16.936 89.4449 21.064C89.4449 25.696 86.6849 28.336 83.7329 28.336ZM82.9649 25.432C84.5729 25.432 85.8209 24.04 85.8209 21.136C85.8209 18.544 85.0289 17.128 83.1569 17.128C82.2689 17.128 81.4289 17.584 80.5409 18.52V24.448C81.3569 25.192 82.2449 25.432 82.9649 25.432ZM96.5142 28.336C93.1302 28.336 90.0582 25.744 90.0582 21.304C90.0582 16.84 93.1302 14.248 96.5142 14.248C99.8742 14.248 102.946 16.84 102.946 21.304C102.946 25.744 99.8742 28.336 96.5142 28.336ZM96.5142 25.48C98.3382 25.48 99.3462 23.824 99.3462 21.304C99.3462 18.76 98.3382 17.128 96.5142 17.128C94.6662 17.128 93.6582 18.76 93.6582 21.304C93.6582 23.824 94.6662 25.48 96.5142 25.48ZM108.527 28V10.24H114.359C118.271 10.24 121.295 11.608 121.295 15.832C121.295 19.888 118.271 21.688 114.455 21.688H112.079V28H108.527ZM112.079 18.88H114.215C116.663 18.88 117.839 17.848 117.839 15.832C117.839 13.744 116.543 13.072 114.095 13.072H112.079V18.88ZM122.687 28V14.584H125.543L125.831 16.96H125.903C126.863 15.184 128.327 14.248 129.719 14.248C130.439 14.248 130.871 14.344 131.279 14.536L130.679 17.56C130.199 17.44 129.839 17.344 129.263 17.344C128.231 17.344 126.959 18.064 126.215 20.008V28H122.687ZM131.604 28V14.584H135.132V28H131.604ZM133.356 12.4C132.132 12.4 131.316 11.632 131.316 10.456C131.316 9.304 132.132 8.56 133.356 8.56C134.58 8.56 135.42 9.304 135.42 10.456C135.42 11.632 134.58 12.4 133.356 12.4ZM143.021 28.336C139.325 28.336 136.493 25.744 136.493 21.304C136.493 16.84 139.685 14.248 143.333 14.248C145.013 14.248 146.261 14.872 147.245 15.736L145.589 17.992C144.917 17.416 144.269 17.128 143.549 17.128C141.461 17.128 140.093 18.76 140.093 21.304C140.093 23.824 141.485 25.48 143.405 25.48C144.389 25.48 145.301 25 146.045 24.4L147.437 26.728C146.165 27.832 144.509 28.336 143.021 28.336ZM153.441 28.336C149.673 28.336 146.745 25.744 146.745 21.304C146.745 16.936 149.817 14.248 152.985 14.248C156.705 14.248 158.601 16.936 158.601 20.656C158.601 21.328 158.529 21.952 158.457 22.288H150.153C150.465 24.496 151.905 25.624 153.897 25.624C154.977 25.624 155.937 25.288 156.921 24.688L158.097 26.872C156.777 27.784 155.097 28.336 153.441 28.336ZM150.105 19.936H155.601C155.601 18.112 154.785 16.96 153.057 16.96C151.641 16.96 150.393 17.968 150.105 19.936Z" fill="white"/>
</svg>
