<svg width="56" height="52" viewBox="0 0 56 52" fill="none" xmlns="http://www.w3.org/2000/svg">
<g filter="url(#filter0_d_50_1142)">
<path d="M24 48C37.2548 48 48 37.2548 48 24C48 10.7452 37.2548 0 24 0C10.7452 0 0 10.7452 0 24C0 37.2548 10.7452 48 24 48Z" fill="#F5F5F5"/>
<path d="M17.12 25.36C19.36 26.88 22.48 26.24 24 24C25.52 21.76 28.56 21.12 30.88 22.64C33.04 24.08 33.68 26.88 32.48 29.04C35.12 24.56 33.92 18.72 29.44 15.76C24.88 12.72 18.72 13.92 15.68 18.48C15.6 18.64 15.52 18.8 15.44 18.88C14.32 21.2 15.04 23.92 17.12 25.36Z" fill="#ED4C5C"/>
<path d="M30.88 22.64C28.64 21.12 25.52 21.76 24 24C22.48 26.24 19.44 26.88 17.12 25.36C14.96 23.92 14.32 21.12 15.52 18.96C12.8 23.44 14.08 29.28 18.56 32.24C23.12 35.28 29.28 34.08 32.32 29.52C32.4 29.36 32.48 29.2 32.56 29.12C33.68 26.8 32.96 24.08 30.88 22.64Z" fill="#428BC1"/>
<path d="M4.64002 17.04L10.16 8.79999L9.60002 8.39999L9.04002 8.07999L3.52002 16.32L4.08002 16.64L4.64002 17.04ZM6.16002 18.08L6.72002 18.4L12.16 10.16L11.68 9.83999L11.12 9.43999L5.60002 17.68L6.16002 18.08ZM13.12 10.8L7.68002 19.04L8.24002 19.44L8.80002 19.76L14.24 11.52L13.68 11.2L13.12 10.8ZM37.2 32.4L37.76 32.8L40.32 28.96L39.76 28.56L39.2 28.24L36.64 32.08L37.2 32.4ZM43.36 30.96L40.8 34.8L41.36 35.2L41.92 35.52L44.48 31.68L43.92 31.36L43.36 30.96ZM39.84 34.16L42.4 30.32L41.84 29.92L41.28 29.6L38.72 33.44L39.28 33.76L39.84 34.16ZM36.88 32.96L36.32 32.64L33.76 36.48L34.32 36.8L34.88 37.2L37.44 33.36L36.88 32.96ZM38.88 34.32L38.4 34L35.84 37.84L36.32 38.16L36.88 38.56L39.44 34.72L38.88 34.32ZM40.4 35.36L37.84 39.2L38.4 39.6L38.96 39.92L41.52 36.08L40.96 35.68L40.4 35.36ZM4.08002 31.36L3.52002 31.68L9.04002 39.92L9.60002 39.6L10.16 39.2L4.64002 30.96L4.08002 31.36ZM9.12002 34.32L8.56002 34.72L11.12 38.56L11.68 38.16L12.16 37.84L9.60002 34L9.12002 34.32ZM8.24002 28.56L7.68002 28.96L13.12 37.2L13.68 36.8L14.24 36.48L8.80002 28.24L8.24002 28.56ZM5.60002 30.32L8.16002 34.16L8.72002 33.76L9.28002 33.44L6.72002 29.6L6.16002 29.92L5.60002 30.32ZM40.96 12.32L41.52 11.92L38.96 8.07999L38.4 8.39999L37.84 8.79999L40.4 12.64L40.96 12.32ZM36.88 15.04L37.44 14.64L34.88 10.8L34.32 11.2L33.76 11.52L36.32 15.36L36.88 15.04ZM40.8 13.2L43.36 17.04L43.92 16.64L44.48 16.32L41.92 12.48L41.36 12.8L40.8 13.2ZM41.84 18.08L42.4 17.68L36.88 9.43999L36.32 9.83999L35.84 10.16L41.28 18.4L41.84 18.08ZM39.76 19.44L40.32 19.04L37.76 15.2L37.2 15.6L36.64 15.92L39.2 19.76L39.76 19.44Z" fill="#3E4347"/>
</g>
<defs>
<filter id="filter0_d_50_1142" x="0" y="0" width="56" height="56" filterUnits="userSpaceOnUse" color-interpolation-filters="sRGB">
<feFlood flood-opacity="0" result="BackgroundImageFix"/>
<feColorMatrix in="SourceAlpha" type="matrix" values="0 0 0 0 0 0 0 0 0 0 0 0 0 0 0 0 0 0 127 0" result="hardAlpha"/>
<feOffset dx="4" dy="4"/>
<feGaussianBlur stdDeviation="2"/>
<feComposite in2="hardAlpha" operator="out"/>
<feColorMatrix type="matrix" values="0 0 0 0 0 0 0 0 0 0 0 0 0 0 0 0 0 0 0.25 0"/>
<feBlend mode="normal" in2="BackgroundImageFix" result="effect1_dropShadow_50_1142"/>
<feBlend mode="normal" in="SourceGraphic" in2="effect1_dropShadow_50_1142" result="shape"/>
</filter>
</defs>
</svg>
