<svg width="56" height="52" viewBox="0 0 56 52" fill="none" xmlns="http://www.w3.org/2000/svg">
<g filter="url(#filter0_d_50_1170)">
<path d="M24.8001 24L7.44006 41.36C11.7601 45.44 17.6001 48 24.0001 48C37.2801 48 48.0001 37.28 48.0001 24H24.8001Z" fill="#ED4C5C"/>
<path d="M48.0001 24C48.0001 10.72 37.2801 0 24.0001 0C17.6001 0 11.7601 2.56 7.44006 6.64L24.8001 24H48.0001Z" fill="#428BC1"/>
<path d="M7.44 6.64005C2.88 11.04 0 17.2 0 24C0 30.8 2.88 36.96 7.44 41.36L24.8 24L7.44 6.64005Z" fill="#F9F9F9"/>
<path d="M8.79994 9.28004L8.15994 10.4L9.03994 11.28L7.83994 11.12L7.19994 12.24L7.03994 11.04L5.83994 10.88L6.95994 10.24L6.79994 9.04004L7.67994 9.92004L8.79994 9.28004ZM8.95994 36.8L8.07994 37.76L8.71994 38.8L7.59994 38.32L6.71994 39.28L6.87994 38L5.67994 37.52L6.95994 37.28L7.11994 36L7.75994 37.12L8.95994 36.8ZM22.7999 24L21.5999 24.4V25.6L20.7999 24.64L19.5999 24.96L20.3999 24L19.5999 23.04L20.7999 23.36L21.5999 22.4V23.6L22.7999 24ZM17.3599 22.8L16.8799 22.4L11.6799 23.52H11.7599L16.6399 22.24L15.9999 21.84L11.8399 23.44L15.2799 20.56L15.1999 19.84L11.5999 23.52H11.5199L15.1199 19.52L15.0399 18.96L14.4799 19.04L11.2799 23.2V23.12L14.2399 18.88L13.5199 18.96L11.3599 22.88L12.1599 18.4L11.6799 17.92L11.1999 23.12V23.2L11.3599 17.76L10.9599 17.36L10.5599 17.76L10.7199 23.2V23.12L10.3199 18L9.83994 18.48L10.6399 22.96L8.47994 19.04L7.75994 18.96L10.7199 23.2V23.28L7.43994 18.96L6.87994 18.88L6.79994 19.44L10.3999 23.44H10.3199L6.71994 19.76L6.63994 20.48L10.0799 23.36L5.91994 21.76L5.35994 22.16L10.2399 23.44H10.3199L5.03994 22.4L4.55994 22.72L4.87994 23.2L10.1599 23.92H10.0799L5.03994 23.44L5.43994 24L9.91994 23.92L5.75994 25.6L5.59994 26.32L10.1599 24.08H10.2399L5.51994 26.64L5.35994 27.2L5.91994 27.36L10.4799 24.48V24.56L6.31994 27.52L6.95994 27.68L10.3199 24.72L7.99994 28.64L8.31994 29.28L10.3999 24.64L10.4799 24.56L8.47994 29.6L8.71994 30.16L9.27994 29.92L10.9599 24.72V24.8L9.59994 29.76L10.2399 29.44L10.9599 24.96L11.6799 29.44L12.3199 29.76L10.9599 24.8V24.72L12.6399 29.92L13.1999 30.16L13.4399 29.6L11.4399 24.56L11.5199 24.64L13.5999 29.28L13.9199 28.64L11.6799 24.72L15.0399 27.68L15.6799 27.52L11.5199 24.56V24.48L16.0799 27.36L16.6399 27.2L16.4799 26.64L11.7599 24.08H11.8399L16.3999 26.32L16.1599 25.6L11.9199 24.08L16.3999 24.16L16.7999 23.6L11.7599 24.08H11.6799L16.9599 23.36L17.3599 22.8Z" fill="#FFCE31"/>
<path d="M10.9599 27.6C12.9481 27.6 14.5599 25.9882 14.5599 24C14.5599 22.0118 12.9481 20.4 10.9599 20.4C8.97164 20.4 7.35986 22.0118 7.35986 24C7.35986 25.9882 8.97164 27.6 10.9599 27.6Z" fill="#FFCE31"/>
</g>
<defs>
<filter id="filter0_d_50_1170" x="0" y="0" width="56" height="56" filterUnits="userSpaceOnUse" color-interpolation-filters="sRGB">
<feFlood flood-opacity="0" result="BackgroundImageFix"/>
<feColorMatrix in="SourceAlpha" type="matrix" values="0 0 0 0 0 0 0 0 0 0 0 0 0 0 0 0 0 0 127 0" result="hardAlpha"/>
<feOffset dx="4" dy="4"/>
<feGaussianBlur stdDeviation="2"/>
<feComposite in2="hardAlpha" operator="out"/>
<feColorMatrix type="matrix" values="0 0 0 0 0 0 0 0 0 0 0 0 0 0 0 0 0 0 0.25 0"/>
<feBlend mode="normal" in2="BackgroundImageFix" result="effect1_dropShadow_50_1170"/>
<feBlend mode="normal" in="SourceGraphic" in2="effect1_dropShadow_50_1170" result="shape"/>
</filter>
</defs>
</svg>
