<svg width="56" height="52" viewBox="0 0 56 52" fill="none" xmlns="http://www.w3.org/2000/svg">
<g filter="url(#filter0_d_50_1154)">
<path d="M36.8 3.68C33.04 1.36 28.72 0 24 0V3.68H36.8Z" fill="#ED4C5C"/>
<path d="M24 7.35999H41.28C39.92 5.99998 38.4 4.71999 36.8 3.67999H24V7.35999Z" fill="white"/>
<path d="M24 11.04H44.24C43.36 9.68002 42.4 8.48002 41.36 7.36002H24V11.04Z" fill="#ED4C5C"/>
<path d="M24 14.72H46.16C45.6 13.44 44.96 12.16 44.24 11.04H24V14.72Z" fill="white"/>
<path d="M24 18.4H47.36C47.04 17.12 46.64 15.92 46.16 14.72H24V18.4Z" fill="#ED4C5C"/>
<path d="M24 22.16H47.92C47.84 20.88 47.6 19.68 47.36 18.48H24V22.16Z" fill="white"/>
<path d="M47.92 22.16H24V24H0C0 24.64 -7.7486e-08 25.2 0.0799999 25.84H47.92C48 25.2 48 24.64 48 24C48 23.36 48 22.72 47.92 22.16Z" fill="#ED4C5C"/>
<path d="M0.640078 29.52H47.3601C47.6801 28.32 47.8401 27.12 47.9201 25.84H0.0800781C0.160078 27.04 0.320078 28.32 0.640078 29.52Z" fill="white"/>
<path d="M1.84001 33.2H46.16C46.64 32 47.04 30.8 47.36 29.52H0.640015C0.960015 30.8 1.36001 32 1.84001 33.2Z" fill="#ED4C5C"/>
<path d="M3.76009 36.88H44.2401C44.9601 35.68 45.6001 34.48 46.1601 33.2H1.84009C2.40009 34.48 3.04009 35.68 3.76009 36.88Z" fill="white"/>
<path d="M6.64001 40.56H41.36C42.4 39.44 43.44 38.16 44.24 36.88H3.76001C4.56001 38.24 5.60001 39.44 6.64001 40.56Z" fill="#ED4C5C"/>
<path d="M11.12 44.24H36.88C38.56 43.2 40 41.92 41.36 40.56H6.64001C8.00001 42 9.52001 43.2 11.12 44.24Z" fill="white"/>
<path d="M24 48C28.72 48 33.12 46.64 36.88 44.24H11.12C14.88 46.64 19.28 48 24 48Z" fill="#ED4C5C"/>
<path d="M11.2 3.68C9.52 4.72 8 6 6.64 7.36C5.52 8.48 4.56 9.76 3.76 11.04C3.04 12.24 2.32 13.44 1.84 14.72C1.36 15.92 0.96 17.12 0.64 18.4C0.32 19.6 0.16 20.8 0.0799999 22.08C-7.7486e-08 22.72 0 23.36 0 24H24V0C19.28 0 14.96 1.36 11.2 3.68Z" fill="#428BC1"/>
<path d="M18.4001 0.799988L18.8001 1.99999H20.0001L19.0401 2.79999L19.3601 3.99999L18.4001 3.27999L17.4401 3.99999L17.7601 2.79999L16.8001 1.99999H18.0001L18.4001 0.799988ZM21.6001 5.59999L22.0001 6.79999H23.2001L22.2401 7.59999L22.5601 8.79999L21.6001 8.07999L20.6401 8.79999L20.9601 7.59999L20.0001 6.79999H21.2001L21.6001 5.59999ZM15.2001 5.59999L15.6001 6.79999H16.8001L15.8401 7.59999L16.1601 8.79999L15.2001 8.07999L14.2401 8.79999L14.5601 7.59999L13.6001 6.79999H14.8001L15.2001 5.59999ZM18.4001 10.4L18.8001 11.6H20.0001L19.0401 12.4L19.3601 13.6L18.4001 12.88L17.4401 13.6L17.7601 12.4L16.8001 11.6H18.0001L18.4001 10.4ZM12.0001 10.4L12.4001 11.6H13.6001L12.6401 12.4L12.9601 13.6L12.0001 12.88L11.0401 13.6L11.3601 12.4L10.4001 11.6H11.6001L12.0001 10.4ZM5.60012 10.4L6.00012 11.6H7.20012L6.24012 12.4L6.56012 13.6L5.60012 12.88L4.64012 13.6L4.96012 12.4L4.00012 11.6H5.20012L5.60012 10.4ZM21.6001 15.2L22.0001 16.4H23.2001L22.2401 17.2L22.5601 18.4L21.6001 17.68L20.6401 18.4L20.9601 17.2L20.0001 16.4H21.2001L21.6001 15.2ZM15.2001 15.2L15.6001 16.4H16.8001L15.8401 17.2L16.1601 18.4L15.2001 17.68L14.2401 18.4L14.5601 17.2L13.6001 16.4H14.8001L15.2001 15.2ZM8.80012 15.2L9.20012 16.4H10.4001L9.44012 17.2L9.76012 18.4L8.80012 17.68L7.84012 18.4L8.16012 17.2L7.20012 16.4H8.40012L8.80012 15.2ZM18.4001 20L18.8001 21.2H20.0001L19.0401 22L19.3601 23.2L18.4001 22.48L17.4401 23.2L17.7601 22L16.8001 21.2H18.0001L18.4001 20ZM12.0001 20L12.4001 21.2H13.6001L12.6401 22L12.9601 23.2L12.0001 22.48L11.0401 23.2L11.3601 22L10.4001 21.2H11.6001L12.0001 20ZM5.60012 20L6.00012 21.2H7.20012L6.24012 22L6.56012 23.2L5.60012 22.48L4.64012 23.2L4.96012 22L4.00012 21.2H5.20012L5.60012 20ZM7.84012 8.79999L8.80012 8.07999L9.76012 8.79999L9.36012 7.59999L10.3201 6.79999H9.12012L8.80012 5.59999L8.40012 6.79999H7.28012L8.24012 7.51999L7.84012 8.79999ZM1.44012 18.4L2.40012 17.68L3.36012 18.4L2.96012 17.2L3.92012 16.4H2.80012L2.40012 15.2L2.00012 16.4H1.20012C1.20012 16.48 1.12012 16.56 1.12012 16.64L1.76012 17.12L1.44012 18.4Z" fill="white"/>
</g>
<defs>
<filter id="filter0_d_50_1154" x="0" y="0" width="56" height="56" filterUnits="userSpaceOnUse" color-interpolation-filters="sRGB">
<feFlood flood-opacity="0" result="BackgroundImageFix"/>
<feColorMatrix in="SourceAlpha" type="matrix" values="0 0 0 0 0 0 0 0 0 0 0 0 0 0 0 0 0 0 127 0" result="hardAlpha"/>
<feOffset dx="4" dy="4"/>
<feGaussianBlur stdDeviation="2"/>
<feComposite in2="hardAlpha" operator="out"/>
<feColorMatrix type="matrix" values="0 0 0 0 0 0 0 0 0 0 0 0 0 0 0 0 0 0 0.25 0"/>
<feBlend mode="normal" in2="BackgroundImageFix" result="effect1_dropShadow_50_1154"/>
<feBlend mode="normal" in="SourceGraphic" in2="effect1_dropShadow_50_1154" result="shape"/>
</filter>
</defs>
</svg>
